# xmcd
#
# Track frame offsets:
#       150
#       16908
#       35571
#       56047
#       76333
#       85747
#       106957
#       123146
#       147843
#       161080
#       178943
#
# Disc length: 2946 seconds
#
# Revision: 0
# Processed by: cddbd v1.5.2PL0 Copyright (c) Steve Scherf et al.
# Submitted via: WaveLab 4.01
#
DISCID=890b800b
DTITLE=Tribo de Levi - Vem Viver
DYEAR=2011
DGENRE=Catolic
TTITLE0=Salmo 8
TTITLE1=Tua Cidade
TTITLE2=Vai Buscar
TTITLE3=Vem Viver
TTITLE4=In Excelsis Deo
TTITLE5=O Amor
TTITLE6=Guerreiro
TTITLE7=Voz do Coração
TTITLE8=Caos
TTITLE9=Meu Valor
TTITLE10=Tribo de Levi - instrumental
EXTD=
EXTT0=
EXTT1=
EXTT2=
EXTT3=
EXTT4=
EXTT5=
EXTT6=
EXTT7=
EXTT8=
EXTT9=
EXTT10=
PLAYORDER=
